<svg width="43" height="34" viewBox="0 0 43 34" fill="none" xmlns="http://www.w3.org/2000/svg">
<path d="M1 17C1 8.16344 8.16344 1 17 1H26C34.8366 1 42 8.16344 42 17V33H17C8.16344 33 1 25.8366 1 17V17Z" fill="#020202" stroke="white" stroke-linejoin="round"/>
<path d="M15.2411 19.1108C14.9854 19.1108 14.7667 19.0227 14.5849 18.8466C14.4087 18.6648 14.3207 18.446 14.3207 18.1903C14.3207 17.9403 14.4087 17.7244 14.5849 17.5426C14.7667 17.3608 14.9854 17.2699 15.2411 17.2699C15.4911 17.2699 15.707 17.3608 15.8888 17.5426C16.0707 17.7244 16.1616 17.9403 16.1616 18.1903C16.1616 18.3608 16.119 18.517 16.0337 18.6591C15.9542 18.7955 15.8434 18.9062 15.7013 18.9915C15.565 19.071 15.4116 19.1108 15.2411 19.1108ZM21.4989 19.1108C21.2433 19.1108 21.0245 19.0227 20.8427 18.8466C20.6665 18.6648 20.5785 18.446 20.5785 18.1903C20.5785 17.9403 20.6665 17.7244 20.8427 17.5426C21.0245 17.3608 21.2433 17.2699 21.4989 17.2699C21.7489 17.2699 21.9648 17.3608 22.1467 17.5426C22.3285 17.7244 22.4194 17.9403 22.4194 18.1903C22.4194 18.3608 22.3768 18.517 22.2915 18.6591C22.212 18.7955 22.1012 18.9062 21.9592 18.9915C21.8228 19.071 21.6694 19.1108 21.4989 19.1108ZM27.7567 19.1108C27.5011 19.1108 27.2823 19.0227 27.1005 18.8466C26.9244 18.6648 26.8363 18.446 26.8363 18.1903C26.8363 17.9403 26.9244 17.7244 27.1005 17.5426C27.2823 17.3608 27.5011 17.2699 27.7567 17.2699C28.0067 17.2699 28.2227 17.3608 28.4045 17.5426C28.5863 17.7244 28.6772 17.9403 28.6772 18.1903C28.6772 18.3608 28.6346 18.517 28.5494 18.6591C28.4698 18.7955 28.359 18.9062 28.217 18.9915C28.0806 19.071 27.9272 19.1108 27.7567 19.1108Z" fill="white"/>
</svg>
