<svg width="32" height="32" viewBox="0 0 32 32" fill="none" xmlns="http://www.w3.org/2000/svg">
<path d="M32 16C32 24.8366 24.8366 32 16 32V32C7.16344 32 -6.26248e-07 24.8366 -1.39876e-06 16L-2.71011e-06 1C-2.75839e-06 0.447718 0.447712 2.75839e-06 0.999997 2.71011e-06L16 1.39876e-06C24.8366 6.26248e-07 32 7.16344 32 16V16Z" fill="#020202"/>
<rect x="30" y="30" width="28" height="28" rx="14" transform="rotate(180 30 30)" fill="#201F23"/>
<path d="M11.6748 17.1477C11.3339 17.1477 11.0423 17.0303 10.7998 16.7955C10.565 16.553 10.4476 16.2614 10.4476 15.9205C10.4476 15.5871 10.565 15.2992 10.7998 15.0568C11.0423 14.8144 11.3339 14.6932 11.6748 14.6932C12.0082 14.6932 12.296 14.8144 12.5385 15.0568C12.7809 15.2992 12.9021 15.5871 12.9021 15.9205C12.9021 16.1477 12.8453 16.3561 12.7316 16.5455C12.6256 16.7273 12.4779 16.875 12.2885 16.9886C12.1066 17.0947 11.9021 17.1477 11.6748 17.1477ZM16.4986 17.1477C16.1577 17.1477 15.866 17.0303 15.6236 16.7955C15.3887 16.553 15.2713 16.2614 15.2713 15.9205C15.2713 15.5871 15.3887 15.2992 15.6236 15.0568C15.866 14.8144 16.1577 14.6932 16.4986 14.6932C16.8319 14.6932 17.1198 14.8144 17.3622 15.0568C17.6046 15.2992 17.7259 15.5871 17.7259 15.9205C17.7259 16.1477 17.669 16.3561 17.5554 16.5455C17.4493 16.7273 17.3016 16.875 17.1122 16.9886C16.9304 17.0947 16.7259 17.1477 16.4986 17.1477ZM21.3223 17.1477C20.9814 17.1477 20.6898 17.0303 20.4473 16.7955C20.2125 16.553 20.0951 16.2614 20.0951 15.9205C20.0951 15.5871 20.2125 15.2992 20.4473 15.0568C20.6898 14.8144 20.9814 14.6932 21.3223 14.6932C21.6557 14.6932 21.9435 14.8144 22.186 15.0568C22.4284 15.2992 22.5496 15.5871 22.5496 15.9205C22.5496 16.1477 22.4928 16.3561 22.3791 16.5455C22.2731 16.7273 22.1254 16.875 21.936 16.9886C21.7541 17.0947 21.5496 17.1477 21.3223 17.1477Z" fill="white"/>
</svg>
